<svg viewBox="-26 1 511 512" xmlns="http://www.w3.org/2000/svg"><path d="M452.824 126.766a43.629 43.629 0 0 0-15.36-14.922L252.263 5.824a45.39 45.39 0 0 0-44.489 0L22.57 111.844a43.673 43.673 0 0 0-15.363 14.922A42.854 42.854 0 0 0 .5 149.805v212.39a44.092 44.092 0 0 0 22.07 37.961l185.203 106.016a45.37 45.37 0 0 0 44.489 0l185.203-106.016a44.1 44.1 0 0 0 22.07-37.96V149.804a42.824 42.824 0 0 0-6.71-23.04zm0 0" fill="#f76c82"/><path d="M459.535 149.805v212.39a44.1 44.1 0 0 1-22.07 37.961L252.262 506.172A45.244 45.244 0 0 1 230.016 512V256l222.808-129.234a42.824 42.824 0 0 1 6.711 23.039zm0 0" fill="#d94452"/><path d="M230.016 256v256a45.23 45.23 0 0 1-22.243-5.828L22.57 400.156A44.092 44.092 0 0 1 .5 362.196V149.804a42.854 42.854 0 0 1 6.707-23.04zm0 0" fill="#eb5463"/><path d="M318.238 413.582a32.823 32.823 0 0 1-23.48 27.066 15.013 15.013 0 0 1-14.742-1.968 15.013 15.013 0 0 1-5.809-13.692 32.61 32.61 0 0 1 23.484-26.98 14.916 14.916 0 0 1 20.547 15.574zm0 0" fill="#cad0d7"/><g fill="#f4f6f8"><path d="M35.863 342.96a32.823 32.823 0 0 0 23.48 27.067 15.01 15.01 0 0 0 20.552-15.66 32.605 32.605 0 0 0-23.48-26.98 14.917 14.917 0 0 0-14.75 1.883 14.908 14.908 0 0 0-5.802 13.69zM150.621 413.582a32.829 32.829 0 0 0 23.48 27.066 15.019 15.019 0 0 0 14.747-1.968 15.01 15.01 0 0 0 5.804-13.692 32.6 32.6 0 0 0-23.48-26.98 14.919 14.919 0 0 0-20.55 15.574zM35.863 219.375a32.823 32.823 0 0 0 23.48 27.066 15.01 15.01 0 0 0 20.552-15.66 32.605 32.605 0 0 0-23.48-26.98 14.919 14.919 0 0 0-20.55 15.574zM150.621 289.996a32.819 32.819 0 0 0 23.48 27.063c4.919 2 10.524 1.25 14.747-1.965a15.013 15.013 0 0 0 5.804-13.696 32.6 32.6 0 0 0-23.48-26.976 14.919 14.919 0 0 0-20.55 15.574zm0 0"/></g><path d="M424.172 219.375a32.829 32.829 0 0 1-23.48 27.066 15.019 15.019 0 0 1-14.747-1.968 15.01 15.01 0 0 1-5.804-13.692 32.6 32.6 0 0 1 23.48-26.98 14.919 14.919 0 0 1 20.55 15.574zM371.207 316.477a32.827 32.827 0 0 1-23.484 27.066 15.009 15.009 0 0 1-20.55-15.66 32.6 32.6 0 0 1 23.483-26.977 14.918 14.918 0 0 1 20.551 15.57zm0 0" fill="#cad0d7"/><path d="M250.473 142.027c-10.22 9.489-25.61 10.735-37.22 3.012a19.572 19.572 0 0 1-9.55-14.586 19.58 19.58 0 0 1 5.86-16.418c10.23-9.52 25.648-10.808 37.316-3.117a19.727 19.727 0 0 1 9.469 14.668 19.73 19.73 0 0 1-5.875 16.441zm0 0" fill="#fff"/></svg>